<?xml version="1.0" encoding="UTF-8"?>
<svg id="Layer_1" xmlns="http://www.w3.org/2000/svg" version="1.1" viewBox="0 0 1920 1080">
  <!-- Generator: Adobe Illustrator 29.0.1, SVG Export Plug-In . SVG Version: 2.1.0 Build 192)  -->
  <defs>
    <style>
      .st0 {
        fill: #252221;
      }

      .st1 {
        fill: #42474c;
      }

      .st2 {
        fill: #444442;
      }

      .st3 {
        fill: #6dce75;
      }

      .st4 {
        fill: #465a46;
      }
    </style>
  </defs>
  <rect x="-3.46" y="-.58" width="1927" height="1081"/>
  <rect class="st0" x="386.54" y="704.42" width="1142" height="376"/>
  <rect class="st4" x="679.54" y="720.42" width="562" height="345"/>
  <rect class="st4" x="1287.54" y="720.42" width="204" height="244"/>
  <rect class="st4" x="410.54" y="720.42" width="227" height="345"/>
  <polyline class="st2" points="1529.78 1080.68 1923.54 1080.88 1922.53 902.88 1529.77 704.88"/>
  <polyline class="st2" points="386.53 1080.22 -3.46 1080.42 -2.46 902.42 386.54 704.42"/>
  <polyline class="st2" points="1529.54 704.42 1041.54 657.42 903.54 657.42 386.54 704.42"/>
  <polyline class="st0" points="1556.54 1081.16 1852.92 1081.31 1852.16 941.24 1556.54 785.42"/>
  <polyline class="st0" points="353.53 1081.19 68.54 1081.35 69.27 941.26 353.54 785.42"/>
  <polyline class="st3" points="1572.1 1080.48 1796.47 1080.58 1795.9 987.13 1572.1 883.17"/>
  <polyline class="st3" points="340.91 1080.74 116.54 1080.84 117.11 987.38 340.91 883.42"/>
  <polyline class="st2" points="-4.46 183.42 386.54 704.42 348.54 723.42 -4.46 368.44 -4.46 183.42"/>
  <polyline class="st2" points="1923.54 183.42 1528.54 704.42 1566.93 723.42 1923.54 368.44 1923.54 183.42"/>
  <rect class="st1" x="528.98" y="834.13" width="44.94" height="29.96"/>
  <rect class="st1" x="418.14" y="834.13" width="44.94" height="29.96"/>
  <rect class="st1" x="472.06" y="834.13" width="44.94" height="29.96"/>
  <rect class="st1" x="582.6" y="834.13" width="44.94" height="29.96"/>
  <rect class="st1" x="528.98" y="872.47" width="44.94" height="29.96"/>
  <rect class="st1" x="418.14" y="872.47" width="44.94" height="29.96"/>
  <rect class="st1" x="472.06" y="872.47" width="44.94" height="29.96"/>
  <rect class="st1" x="582.6" y="872.47" width="44.94" height="29.96"/>
  <rect class="st1" x="528.68" y="910.82" width="44.94" height="29.96"/>
  <rect class="st1" x="417.84" y="910.82" width="44.94" height="29.96"/>
  <rect class="st1" x="471.76" y="910.82" width="44.94" height="29.96"/>
  <rect class="st1" x="582.3" y="910.82" width="44.94" height="29.96"/>
  <rect class="st1" x="528.68" y="949.16" width="44.94" height="29.96"/>
  <rect class="st1" x="417.84" y="949.16" width="44.94" height="29.96"/>
  <rect class="st1" x="471.76" y="949.16" width="44.94" height="29.96"/>
  <rect class="st1" x="582.3" y="949.16" width="44.94" height="29.96"/>
  <rect class="st1" x="528.68" y="987.51" width="44.94" height="29.96"/>
  <rect class="st1" x="417.84" y="987.51" width="44.94" height="29.96"/>
  <rect class="st1" x="471.76" y="987.51" width="44.94" height="29.96"/>
  <rect class="st1" x="582.3" y="987.51" width="44.94" height="29.96"/>
  <rect class="st1" x="528.38" y="1025.85" width="44.94" height="29.96"/>
  <rect class="st1" x="417.54" y="1025.85" width="44.94" height="29.96"/>
  <rect class="st1" x="471.46" y="1025.85" width="44.94" height="29.96"/>
  <rect class="st1" x="582" y="1025.85" width="44.94" height="29.96"/>
  <rect class="st3" x="699.54" y="741.28" width="516" height="101.28"/>
  <rect class="st3" x="421.67" y="732.42" width="204.87" height="76.34"/>
  <circle class="st3" cx="1394.04" cy="842.92" r="87.5"/>
</svg>